<svg width="13" height="13" viewBox="0 0 13 13" fill="none" xmlns="http://www.w3.org/2000/svg">
<path d="M6.13867 2.9668C7.86133 2.9668 9.2832 4.38867 9.2832 6.11133C9.2832 7.86133 7.86133 9.25586 6.13867 9.25586C4.38867 9.25586 2.99414 7.86133 2.99414 6.11133C2.99414 4.38867 4.38867 2.9668 6.13867 2.9668ZM6.13867 8.16211C7.25977 8.16211 8.16211 7.25977 8.16211 6.11133C8.16211 4.99023 7.25977 4.08789 6.13867 4.08789C4.99023 4.08789 4.08789 4.99023 4.08789 6.11133C4.08789 7.25977 5.01758 8.16211 6.13867 8.16211ZM10.1309 2.85742C10.1309 3.26758 9.80273 3.5957 9.39258 3.5957C8.98242 3.5957 8.6543 3.26758 8.6543 2.85742C8.6543 2.44727 8.98242 2.11914 9.39258 2.11914C9.80273 2.11914 10.1309 2.44727 10.1309 2.85742ZM12.209 3.5957C12.2637 4.60742 12.2637 7.64258 12.209 8.6543C12.1543 9.63867 11.9355 10.4863 11.2246 11.2246C10.5137 11.9355 9.63867 12.1543 8.6543 12.209C7.64258 12.2637 4.60742 12.2637 3.5957 12.209C2.61133 12.1543 1.76367 11.9355 1.02539 11.2246C0.314453 10.4863 0.0957031 9.63867 0.0410156 8.6543C-0.0136719 7.64258 -0.0136719 4.60742 0.0410156 3.5957C0.0957031 2.61133 0.314453 1.73633 1.02539 1.02539C1.76367 0.314453 2.61133 0.0957031 3.5957 0.0410156C4.60742 -0.0136719 7.64258 -0.0136719 8.6543 0.0410156C9.63867 0.0957031 10.5137 0.314453 11.2246 1.02539C11.9355 1.73633 12.1543 2.61133 12.209 3.5957ZM10.8965 9.7207C11.2246 8.92773 11.1426 7.01367 11.1426 6.11133C11.1426 5.23633 11.2246 3.32227 10.8965 2.50195C10.6777 1.98242 10.2676 1.54492 9.74805 1.35352C8.92773 1.02539 7.01367 1.10742 6.13867 1.10742C5.23633 1.10742 3.32227 1.02539 2.5293 1.35352C1.98242 1.57227 1.57227 1.98242 1.35352 2.50195C1.02539 3.32227 1.10742 5.23633 1.10742 6.11133C1.10742 7.01367 1.02539 8.92773 1.35352 9.7207C1.57227 10.2676 1.98242 10.6777 2.5293 10.8965C3.32227 11.2246 5.23633 11.1426 6.13867 11.1426C7.01367 11.1426 8.92773 11.2246 9.74805 10.8965C10.2676 10.6777 10.7051 10.2676 10.8965 9.7207Z" fill="white"/>
</svg>
