<svg width="24" height="24" viewBox="0 0 24 24" fill="none" xmlns="http://www.w3.org/2000/svg">
<mask id="mask0_324_4077" style="mask-type:alpha" maskUnits="userSpaceOnUse" x="0" y="0" width="24" height="24">
<rect width="24" height="24" fill="#D9D9D9"/>
</mask>
<g mask="url(#mask0_324_4077)">
<mask id="mask1_324_4077" style="mask-type:alpha" maskUnits="userSpaceOnUse" x="-1" y="0" width="25" height="25">
<rect x="-0.278809" y="0.532227" width="24" height="24" fill="#D9D9D9"/>
</mask>
<g mask="url(#mask1_324_4077)">
<path d="M0.721191 20.5322V17.7322C0.721191 17.1656 0.867025 16.6447 1.15869 16.1697C1.45036 15.6947 1.83786 15.3322 2.32119 15.0822C3.35452 14.5656 4.40452 14.1781 5.47119 13.9197C6.53786 13.6614 7.62119 13.5322 8.72119 13.5322C9.82119 13.5322 10.9045 13.6614 11.9712 13.9197C13.0379 14.1781 14.0879 14.5656 15.1212 15.0822C15.6045 15.3322 15.992 15.6947 16.2837 16.1697C16.5754 16.6447 16.7212 17.1656 16.7212 17.7322V20.5322H0.721191ZM18.7212 20.5322V17.5322C18.7212 16.7989 18.517 16.0947 18.1087 15.4197C17.7004 14.7447 17.1212 14.1656 16.3712 13.6822C17.2212 13.7822 18.0212 13.9531 18.7712 14.1947C19.5212 14.4364 20.2212 14.7322 20.8712 15.0822C21.4712 15.4156 21.9295 15.7864 22.2462 16.1947C22.5629 16.6031 22.7212 17.0489 22.7212 17.5322V20.5322H18.7212ZM8.72119 12.5322C7.62119 12.5322 6.67952 12.1406 5.89619 11.3572C5.11286 10.5739 4.72119 9.63223 4.72119 8.53223C4.72119 7.43223 5.11286 6.49056 5.89619 5.70723C6.67952 4.92389 7.62119 4.53223 8.72119 4.53223C9.82119 4.53223 10.7629 4.92389 11.5462 5.70723C12.3295 6.49056 12.7212 7.43223 12.7212 8.53223C12.7212 9.63223 12.3295 10.5739 11.5462 11.3572C10.7629 12.1406 9.82119 12.5322 8.72119 12.5322ZM18.7212 8.53223C18.7212 9.63223 18.3295 10.5739 17.5462 11.3572C16.7629 12.1406 15.8212 12.5322 14.7212 12.5322C14.5379 12.5322 14.3045 12.5114 14.0212 12.4697C13.7379 12.4281 13.5045 12.3822 13.3212 12.3322C13.7712 11.7989 14.117 11.2072 14.3587 10.5572C14.6004 9.90723 14.7212 9.23223 14.7212 8.53223C14.7212 7.83223 14.6004 7.15723 14.3587 6.50723C14.117 5.85723 13.7712 5.26556 13.3212 4.73223C13.5545 4.64889 13.7879 4.59473 14.0212 4.56973C14.2545 4.54473 14.4879 4.53223 14.7212 4.53223C15.8212 4.53223 16.7629 4.92389 17.5462 5.70723C18.3295 6.49056 18.7212 7.43223 18.7212 8.53223ZM2.72119 18.5322H14.7212V17.7322C14.7212 17.5489 14.6754 17.3822 14.5837 17.2322C14.492 17.0822 14.3712 16.9656 14.2212 16.8822C13.3212 16.4322 12.4129 16.0947 11.4962 15.8697C10.5795 15.6447 9.65452 15.5322 8.72119 15.5322C7.78786 15.5322 6.86286 15.6447 5.94619 15.8697C5.02952 16.0947 4.12119 16.4322 3.22119 16.8822C3.07119 16.9656 2.95036 17.0822 2.85869 17.2322C2.76702 17.3822 2.72119 17.5489 2.72119 17.7322V18.5322ZM8.72119 10.5322C9.27119 10.5322 9.74203 10.3364 10.1337 9.94473C10.5254 9.55306 10.7212 9.08223 10.7212 8.53223C10.7212 7.98223 10.5254 7.51139 10.1337 7.11973C9.74203 6.72806 9.27119 6.53223 8.72119 6.53223C8.17119 6.53223 7.70036 6.72806 7.30869 7.11973C6.91702 7.51139 6.72119 7.98223 6.72119 8.53223C6.72119 9.08223 6.91702 9.55306 7.30869 9.94473C7.70036 10.3364 8.17119 10.5322 8.72119 10.5322Z" fill="white"/>
</g>
</g>
</svg>
