<svg width="18" height="18" viewBox="0 0 18 18" fill="none" xmlns="http://www.w3.org/2000/svg">
<path d="M14.8438 2.57812C16.4844 4.21875 17.5 6.36719 17.5 8.71094C17.5 13.4766 13.5156 17.3828 8.71094 17.3828C7.26562 17.3828 5.85938 16.9922 4.57031 16.3281L0 17.5L1.21094 13.0078C0.46875 11.7188 0.0390625 10.2344 0.0390625 8.67188C0.0390625 3.90625 3.94531 0 8.71094 0C11.0547 0 13.2422 0.9375 14.8438 2.57812ZM8.71094 15.8984C12.6953 15.8984 16.0156 12.6562 16.0156 8.71094C16.0156 6.75781 15.1953 4.96094 13.8281 3.59375C12.4609 2.22656 10.6641 1.48438 8.75 1.48438C4.76562 1.48438 1.52344 4.72656 1.52344 8.67188C1.52344 10.0391 1.91406 11.3672 2.61719 12.5391L2.8125 12.8125L2.07031 15.4688L4.80469 14.7266L5.03906 14.8828C6.17188 15.5469 7.42188 15.8984 8.71094 15.8984ZM12.6953 10.5078C12.8906 10.625 13.0469 10.6641 13.0859 10.7812C13.1641 10.8594 13.1641 11.2891 12.9688 11.7969C12.7734 12.3047 11.9141 12.7734 11.5234 12.8125C10.8203 12.9297 10.2734 12.8906 8.90625 12.2656C6.71875 11.3281 5.3125 9.14062 5.19531 9.02344C5.07812 8.86719 4.33594 7.85156 4.33594 6.75781C4.33594 5.70312 4.88281 5.19531 5.07812 4.96094C5.27344 4.72656 5.50781 4.6875 5.66406 4.6875C5.78125 4.6875 5.9375 4.6875 6.05469 4.6875C6.21094 4.6875 6.36719 4.64844 6.5625 5.07812C6.71875 5.50781 7.1875 6.5625 7.22656 6.67969C7.26562 6.79688 7.30469 6.91406 7.22656 7.07031C6.83594 7.89062 6.36719 7.85156 6.60156 8.24219C7.46094 9.6875 8.28125 10.1953 9.57031 10.8203C9.76562 10.9375 9.88281 10.8984 10.0391 10.7812C10.1562 10.625 10.5859 10.1172 10.7031 9.92188C10.8594 9.6875 11.0156 9.72656 11.2109 9.80469C11.4062 9.88281 12.4609 10.3906 12.6953 10.5078Z" fill="white"/>
</svg>
